<svg width="99" height="33" viewBox="0 0 99 33" fill="none" xmlns="http://www.w3.org/2000/svg">
<path d="M8.02463 26.2712C6.62222 26.2712 5.24043 26.1126 3.87927 25.7956C2.5181 25.4573 1.42505 25.024 0.600098 24.4955L2.36342 20.3735C3.1265 20.8597 4.03394 21.2508 5.08575 21.5467C6.13756 21.8215 7.17906 21.9589 8.21024 21.9589C9.15893 21.9589 9.8292 21.8638 10.2211 21.6735C10.6335 21.4622 10.8398 21.1662 10.8398 20.7857C10.8398 20.4052 10.5923 20.141 10.0973 19.993C9.62297 19.8239 8.85989 19.6654 7.80808 19.5174C6.46754 19.3483 5.32292 19.1264 4.37423 18.8516C3.44617 18.5768 2.64184 18.0694 1.96126 17.3296C1.28068 16.5897 0.940389 15.5539 0.940389 14.2222C0.940389 13.123 1.26006 12.1506 1.89939 11.3051C2.53873 10.4384 3.46679 9.76199 4.68359 9.2758C5.92101 8.76847 7.39561 8.51481 9.10737 8.51481C10.3242 8.51481 11.5307 8.64164 12.7268 8.8953C13.923 9.14897 14.9233 9.50832 15.7276 9.97337L13.9643 14.0637C12.4793 13.2181 10.8707 12.7954 9.13831 12.7954C8.21024 12.7954 7.52966 12.9116 7.09656 13.1442C6.66346 13.3555 6.44692 13.6409 6.44692 14.0003C6.44692 14.4019 6.68409 14.6873 7.15843 14.8564C7.63278 15.0043 8.41648 15.1629 9.50953 15.332C10.8913 15.5434 12.0359 15.7865 12.9434 16.0613C13.8508 16.3361 14.6345 16.8434 15.2945 17.5832C15.9751 18.302 16.3154 19.3166 16.3154 20.6272C16.3154 21.7053 15.9957 22.6776 15.3564 23.5443C14.717 24.3899 13.7683 25.0557 12.5103 25.5419C11.2729 26.0281 9.77764 26.2712 8.02463 26.2712Z" fill="#374151"/>
<path d="M18.8482 2.45862H24.726V25.9858H18.8482V2.45862Z" fill="#374151"/>
<path d="M28.5458 8.80018H34.4235V25.9858H28.5458V8.80018ZM31.4846 6.89771C30.4122 6.89771 29.546 6.5912 28.8861 5.97819C28.2261 5.36517 27.8961 4.60418 27.8961 3.69523C27.8961 2.78627 28.2261 2.02528 28.8861 1.41226C29.546 0.799245 30.4122 0.492737 31.4846 0.492737C32.5571 0.492737 33.4233 0.788676 34.0832 1.38056C34.7432 1.9513 35.0732 2.69114 35.0732 3.6001C35.0732 4.55134 34.7432 5.34403 34.0832 5.97819C33.4233 6.5912 32.5571 6.89771 31.4846 6.89771Z" fill="#374151"/>
<path d="M48.7924 8.51481C50.3185 8.51481 51.7003 8.88474 52.9377 9.62458C54.1958 10.3433 55.1857 11.3791 55.9075 12.7319C56.65 14.0637 57.0212 15.6174 57.0212 17.393C57.0212 19.1686 56.65 20.7329 55.9075 22.0858C55.1857 23.4175 54.1958 24.4533 52.9377 25.1931C51.7003 25.9118 50.3185 26.2712 48.7924 26.2712C46.8331 26.2712 45.276 25.6687 44.1211 24.4638V32.1371H38.2433V8.80018H43.8427V10.5124C44.9357 9.18068 46.5856 8.51481 48.7924 8.51481ZM47.5549 21.4833C48.5861 21.4833 49.4317 21.1239 50.0917 20.4052C50.7516 19.6654 51.0816 18.6613 51.0816 17.393C51.0816 16.1247 50.7516 15.1312 50.0917 14.4125C49.4317 13.6726 48.5861 13.3027 47.5549 13.3027C46.5238 13.3027 45.6782 13.6726 45.0182 14.4125C44.3583 15.1312 44.0283 16.1247 44.0283 17.393C44.0283 18.6613 44.3583 19.6654 45.0182 20.4052C45.6782 21.1239 46.5238 21.4833 47.5549 21.4833Z" fill="#374151"/>
<path d="M70.3022 8.51481C71.8284 8.51481 73.2102 8.88474 74.4476 9.62458C75.7056 10.3433 76.6956 11.3791 77.4174 12.7319C78.1599 14.0637 78.5311 15.6174 78.5311 17.393C78.5311 19.1686 78.1599 20.7329 77.4174 22.0858C76.6956 23.4175 75.7056 24.4533 74.4476 25.1931C73.2102 25.9118 71.8284 26.2712 70.3022 26.2712C68.343 26.2712 66.7859 25.6687 65.631 24.4638V32.1371H59.7532V8.80018H65.3525V10.5124C66.4456 9.18068 68.0955 8.51481 70.3022 8.51481ZM69.0648 21.4833C70.096 21.4833 70.9416 21.1239 71.6015 20.4052C72.2615 19.6654 72.5915 18.6613 72.5915 17.393C72.5915 16.1247 72.2615 15.1312 71.6015 14.4125C70.9416 13.6726 70.096 13.3027 69.0648 13.3027C68.0336 13.3027 67.188 13.6726 66.5281 14.4125C65.8681 15.1312 65.5382 16.1247 65.5382 17.393C65.5382 18.6613 65.8681 19.6654 66.5281 20.4052C67.188 21.1239 68.0336 21.4833 69.0648 21.4833Z" fill="#374151"/>
<path d="M98.4741 8.80018L91.2352 26.6834C90.3896 28.7972 89.3584 30.2769 88.1416 31.1225C86.9248 31.9892 85.4399 32.4225 83.6869 32.4225C82.8001 32.4225 81.903 32.2745 80.9955 31.9786C80.1087 31.7038 79.3869 31.3339 78.83 30.8688L80.8718 26.6517C81.2018 26.9688 81.5936 27.2118 82.0473 27.381C82.5217 27.5712 82.996 27.6663 83.4704 27.6663C84.0272 27.6663 84.4809 27.5501 84.8316 27.3175C85.2028 27.085 85.5121 26.7151 85.7596 26.2078L78.5826 8.80018H84.615L88.7294 19.2955L92.8748 8.80018H98.4741Z" fill="#374151"/>
</svg>
